# xmcd CD database file
#
# Track frame offsets:
#	150
#	15806
#	39101
#	55476
#	75879
#	92336
#	112969
#	131995
#	148228
#
# Disc length: 2161 seconds
#
# Revision: 0
# Processed by: cddbd v1.5.2PL0 Copyright (c) Steve Scherf et al.
# Submitted via: CDex 1.70beta2
#
DISCID=63086f09
DTITLE=松原みき      - BLUE EYES 
DYEAR=1900
DGENRE=Jazz
TTITLE0=Love For Sale
TTITLE1=Misty     
TTITLE2=You'd Be So Nice To Come Home To
TTITLE3=Wave
TTITLE4=Love Letters
TTITLE5=Cheek To Cheek
TTITLE6=You've Got A Friend
TTITLE7=Tea For Two
TTITLE8=When You Wish Upon A Star
EXTD=
EXTT0=
EXTT1=
EXTT2=
EXTT3=
EXTT4=
EXTT5=
EXTT6=
EXTT7=
EXTT8=
PLAYORDER=
